<mxfile host="app.diagrams.net" modified="2022-03-08T18:39:09.696Z" agent="5.0 (Windows NT 10.0; Win64; x64) AppleWebKit/537.36 (KHTML, like Gecko) Chrome/97.0.4692.99 Safari/537.36" etag="mZQziSFvTokKz9hie0ts" version="17.0.0" type="github">
  <diagram id="wFE0QG_FPsp0jaGvCLVb" name="Page-1">
    <mxGraphModel dx="1102" dy="614" grid="1" gridSize="10" guides="1" tooltips="1" connect="1" arrows="1" fold="1" page="1" pageScale="1" pageWidth="850" pageHeight="1100" math="0" shadow="0">
      <root>
        <mxCell id="0" />
        <mxCell id="1" parent="0" />
        <mxCell id="_5mSTuPxr-ZiKRkBDSY7-1" value="" style="swimlane;fontStyle=2;childLayout=stackLayout;horizontal=1;startSize=28;horizontalStack=1;resizeParent=1;resizeParentMax=0;resizeLast=0;collapsible=0;marginBottom=0;swimlaneFillColor=none;fontFamily=Permanent Marker;fontSize=16;points=[];verticalAlign=top;stackBorder=0;resizable=1;strokeWidth=2;sketch=1;disableMultiStroke=1;" parent="1" vertex="1">
          <mxGeometry x="160" y="70" width="545" height="440" as="geometry" />
        </mxCell>
        <object label="Fixed" status="New" id="_5mSTuPxr-ZiKRkBDSY7-2">
          <mxCell style="swimlane;strokeWidth=2;fontFamily=Permanent Marker;html=0;startSize=1;verticalAlign=bottom;spacingBottom=5;points=[];childLayout=stackLayout;stackBorder=20;stackSpacing=20;resizeLast=0;resizeParent=1;horizontalStack=0;collapsible=0;sketch=1;strokeColor=none;fillStyle=solid;fillColor=#A0522D;" parent="_5mSTuPxr-ZiKRkBDSY7-1" vertex="1">
            <mxGeometry y="28" width="180" height="412" as="geometry" />
          </mxCell>
        </object>
        <mxCell id="koO-FAKM8nsYv-BAje24-3" value="" style="endArrow=classic;startArrow=classic;html=1;rounded=0;fontFamily=Georgia;fontSize=20;" edge="1" parent="_5mSTuPxr-ZiKRkBDSY7-2">
          <mxGeometry width="50" height="50" relative="1" as="geometry">
            <mxPoint x="60" y="60.5" as="sourcePoint" />
            <mxPoint x="120" y="60.5" as="targetPoint" />
            <Array as="points">
              <mxPoint x="110" y="60.5" />
            </Array>
          </mxGeometry>
        </mxCell>
        <mxCell id="koO-FAKM8nsYv-BAje24-4" value="" style="endArrow=classic;startArrow=classic;html=1;rounded=0;fontFamily=Georgia;fontSize=20;" edge="1" parent="_5mSTuPxr-ZiKRkBDSY7-2">
          <mxGeometry width="50" height="50" relative="1" as="geometry">
            <mxPoint x="89.5" y="36" as="sourcePoint" />
            <mxPoint x="89.5" y="86" as="targetPoint" />
            <Array as="points">
              <mxPoint x="89.5" y="76" />
            </Array>
          </mxGeometry>
        </mxCell>
        <object label="" placeholders="1" id="_5mSTuPxr-ZiKRkBDSY7-3">
          <mxCell style="whiteSpace=wrap;html=1;strokeWidth=2;fontStyle=1;spacingTop=0;rounded=1;arcSize=9;points=[];sketch=1;fontFamily=Permanent Marker;hachureGap=8;fillWeight=1;fillColor=#f5f5f5;fontColor=#333333;strokeColor=#666666;" parent="_5mSTuPxr-ZiKRkBDSY7-2" vertex="1">
            <mxGeometry x="20" y="21" width="140" height="80" as="geometry" />
          </mxCell>
        </object>
        <object label="WrapContent" status="In progress" id="_5mSTuPxr-ZiKRkBDSY7-6">
          <mxCell style="swimlane;strokeWidth=2;fontFamily=Permanent Marker;html=0;startSize=1;verticalAlign=bottom;spacingBottom=5;points=[];childLayout=stackLayout;stackBorder=20;stackSpacing=20;resizeLast=0;resizeParent=1;horizontalStack=0;collapsible=0;sketch=1;strokeColor=none;fillStyle=solid;fillColor=#006600;" parent="_5mSTuPxr-ZiKRkBDSY7-1" vertex="1">
            <mxGeometry x="180" y="28" width="180" height="412" as="geometry" />
          </mxCell>
        </object>
        <object label="" placeholders="1" id="_5mSTuPxr-ZiKRkBDSY7-7">
          <mxCell style="whiteSpace=wrap;html=1;strokeWidth=2;fillColor=#dae8fc;fontStyle=1;spacingTop=0;rounded=1;arcSize=9;points=[];sketch=1;fontFamily=Permanent Marker;hachureGap=8;fillWeight=1;strokeColor=#6c8ebf;" parent="_5mSTuPxr-ZiKRkBDSY7-6" vertex="1">
            <mxGeometry x="20" y="21" width="140" height="80" as="geometry" />
          </mxCell>
        </object>
        <mxCell id="koO-FAKM8nsYv-BAje24-14" value="" style="endArrow=none;dashed=1;html=1;dashPattern=1 3;strokeWidth=2;rounded=0;fontFamily=Georgia;fontSize=20;fontColor=#D6D6D6;" edge="1" parent="_5mSTuPxr-ZiKRkBDSY7-6">
          <mxGeometry width="50" height="50" relative="1" as="geometry">
            <mxPoint x="90" y="91" as="sourcePoint" />
            <mxPoint x="90" y="31" as="targetPoint" />
          </mxGeometry>
        </mxCell>
        <mxCell id="koO-FAKM8nsYv-BAje24-13" value="" style="endArrow=none;dashed=1;html=1;dashPattern=1 3;strokeWidth=2;rounded=0;fontFamily=Georgia;fontSize=20;fontColor=#D6D6D6;" edge="1" parent="_5mSTuPxr-ZiKRkBDSY7-6">
          <mxGeometry width="50" height="50" relative="1" as="geometry">
            <mxPoint x="60" y="61" as="sourcePoint" />
            <mxPoint x="120" y="61" as="targetPoint" />
          </mxGeometry>
        </mxCell>
        <mxCell id="koO-FAKM8nsYv-BAje24-16" value="&lt;span style=&quot;color: rgb(115 , 115 , 115) ; font-family: &amp;#34;permanent marker&amp;#34; ; font-size: 12px ; font-weight: 700&quot;&gt;Wrapcontent:&lt;br&gt;Tamanho ajustável ao&amp;nbsp;&lt;br&gt;conteúdo&lt;br&gt;&lt;/span&gt;" style="text;html=1;align=center;verticalAlign=middle;resizable=0;points=[];autosize=1;strokeColor=none;fillColor=none;fontSize=20;fontFamily=Georgia;fontColor=#D6D6D6;" vertex="1" parent="_5mSTuPxr-ZiKRkBDSY7-6">
          <mxGeometry x="20" y="121" width="140" height="90" as="geometry" />
        </mxCell>
        <object label="MatchParent" status="Completed" id="_5mSTuPxr-ZiKRkBDSY7-9">
          <mxCell style="swimlane;strokeWidth=2;fontFamily=Permanent Marker;html=0;startSize=1;verticalAlign=bottom;spacingBottom=5;points=[];childLayout=stackLayout;stackBorder=20;stackSpacing=20;resizeLast=0;resizeParent=1;horizontalStack=0;collapsible=0;sketch=1;strokeColor=none;fillStyle=solid;fillColor=#1BA1E2;" parent="_5mSTuPxr-ZiKRkBDSY7-1" vertex="1">
            <mxGeometry x="360" y="28" width="185" height="412" as="geometry" />
          </mxCell>
        </object>
        <mxCell id="koO-FAKM8nsYv-BAje24-24" value="" style="shape=link;html=1;rounded=0;fontFamily=Georgia;fontSize=20;fontColor=#D6D6D6;" edge="1" parent="_5mSTuPxr-ZiKRkBDSY7-9">
          <mxGeometry width="100" relative="1" as="geometry">
            <mxPoint x="92.5" y="91" as="sourcePoint" />
            <mxPoint x="92.5" y="31" as="targetPoint" />
          </mxGeometry>
        </mxCell>
        <mxCell id="koO-FAKM8nsYv-BAje24-23" value="" style="shape=link;html=1;rounded=0;fontFamily=Georgia;fontSize=20;fontColor=#D6D6D6;" edge="1" parent="_5mSTuPxr-ZiKRkBDSY7-9">
          <mxGeometry width="100" relative="1" as="geometry">
            <mxPoint x="57.5" y="61" as="sourcePoint" />
            <mxPoint x="127.5" y="61" as="targetPoint" />
          </mxGeometry>
        </mxCell>
        <object label="" placeholders="1" id="_5mSTuPxr-ZiKRkBDSY7-10">
          <mxCell style="whiteSpace=wrap;html=1;strokeWidth=2;fillColor=#d5e8d4;fontStyle=1;spacingTop=0;rounded=1;arcSize=9;points=[];sketch=1;fontFamily=Permanent Marker;hachureGap=8;fillWeight=1;strokeColor=#82b366;" parent="_5mSTuPxr-ZiKRkBDSY7-9" vertex="1">
            <mxGeometry x="20" y="21" width="145" height="80" as="geometry" />
          </mxCell>
        </object>
        <mxCell id="koO-FAKM8nsYv-BAje24-17" value="&lt;span style=&quot;color: rgb(115 , 115 , 115) ; font-family: &amp;#34;permanent marker&amp;#34; ; font-size: 12px ; font-weight: 700&quot;&gt;MatchParent: Tamanho ajustável&lt;br&gt;a tela do dispositivo&lt;br&gt;&lt;/span&gt;" style="text;html=1;align=center;verticalAlign=middle;resizable=0;points=[];autosize=1;strokeColor=none;fillColor=none;fontSize=20;fontFamily=Georgia;fontColor=#D6D6D6;" vertex="1" parent="_5mSTuPxr-ZiKRkBDSY7-9">
          <mxGeometry x="20" y="121" width="145" height="60" as="geometry" />
        </mxCell>
        <mxCell id="koO-FAKM8nsYv-BAje24-18" value="" style="edgeStyle=orthogonalEdgeStyle;rounded=0;orthogonalLoop=1;jettySize=auto;html=1;fontFamily=Georgia;fontSize=20;fontColor=#D6D6D6;" edge="1" parent="_5mSTuPxr-ZiKRkBDSY7-1" source="_5mSTuPxr-ZiKRkBDSY7-7" target="_5mSTuPxr-ZiKRkBDSY7-3">
          <mxGeometry relative="1" as="geometry" />
        </mxCell>
        <mxCell id="koO-FAKM8nsYv-BAje24-1" value="&lt;font style=&quot;font-size: 20px&quot; face=&quot;Georgia&quot;&gt;Para posicionar e ancorar um elemento, temos que criar ao menos uma âncora (constraint) horizontal e uma âncora vertical.&lt;/font&gt;" style="rounded=0;whiteSpace=wrap;html=1;align=left;" vertex="1" parent="1">
          <mxGeometry x="160" y="560" width="540" height="80" as="geometry" />
        </mxCell>
        <mxCell id="koO-FAKM8nsYv-BAje24-6" value="&lt;span style=&quot;color: rgb(115 , 115 , 115) ; font-family: &amp;#34;permanent marker&amp;#34; ; font-size: 12px ; font-weight: 700&quot;&gt;Fixed: Tamanho fixo&lt;/span&gt;" style="text;html=1;align=center;verticalAlign=middle;resizable=0;points=[];autosize=1;strokeColor=none;fillColor=none;fontSize=20;fontFamily=Georgia;fontColor=#D6D6D6;" vertex="1" parent="1">
          <mxGeometry x="190" y="225" width="120" height="30" as="geometry" />
        </mxCell>
      </root>
    </mxGraphModel>
  </diagram>
</mxfile>
